<?xml version="1.0" ?><svg height="24" id="svg8" version="1.1" viewBox="0 0 24 24" width="24" xmlns="http://www.w3.org/2000/svg" xmlns:cc="http://creativecommons.org/ns#" xmlns:dc="http://purl.org/dc/elements/1.1/" xmlns:rdf="http://www.w3.org/1999/02/22-rdf-syntax-ns#" xmlns:svg="http://www.w3.org/2000/svg"><defs id="defs2"/><g id="g1265" style="display:inline" transform="translate(-1.0999855e-7,-290.64998)"><path d="m 12.00781,292.65001 a 1.0001,1.0001 0 0 0 -0.60351,0.21094 l -9.01758,7 A 1.0001,1.0001 0 0 0 2,300.65001 v 8.73633 c 0,1.7908 1.47287,3.26367 3.26367,3.26367 h 13.47266 c 1.7908,0 3.26367,-1.47287 3.26367,-3.26367 v -8.73633 a 1.0001,1.0001 0 0 0 -0.38477,-0.78906 l -8.98242,-7 a 1.0001,1.0001 0 0 0 -0.625,-0.21094 z m 0.008,2.26758 7.98439,6.2207 v 8.24805 c 0,0.71837 -0.5453,1.26367 -1.26367,1.26367 H 16 v -5 c 0,-2.1987 -1.8013,-4 -4,-4 -2.1987,0 -4,1.8013 -4,4 v 5 H 5.26367 C 4.5453,310.65001 4,310.10471 4,309.38634 v -8.24805 z M 12,303.65001 c 1.1253,0 2,0.8747 2,2 v 5 h -4 v -5 c 0,-1.1253 0.8747,-2 2,-2 z" id="rect1251" style="color:#000000;font-style:normal;font-variant:normal;font-weight:normal;font-stretch:normal;font-size:medium;line-height:normal;font-family:sans-serif;font-variant-ligatures:normal;font-variant-position:normal;font-variant-caps:normal;font-variant-numeric:normal;font-variant-alternates:normal;font-variant-east-asian:normal;font-feature-settings:normal;font-variation-settings:normal;text-indent:0;text-align:start;text-decoration:none;text-decoration-line:none;text-decoration-style:solid;text-decoration-color:#000000;letter-spacing:normal;word-spacing:normal;text-transform:none;writing-mode:lr-tb;direction:ltr;text-orientation:mixed;dominant-baseline:auto;baseline-shift:baseline;text-anchor:start;white-space:normal;shape-padding:0;shape-margin:0;inline-size:0;clip-rule:nonzero;display:inline;overflow:visible;visibility:visible;opacity:1;isolation:auto;mix-blend-mode:normal;color-interpolation:sRGB;color-interpolation-filters:linearRGB;solid-color:#000000;solid-opacity:1;vector-effect:none;fill:#000000;fill-opacity:1;fill-rule:nonzero;stroke:none;stroke-linecap:round;stroke-linejoin:round;stroke-miterlimit:4;stroke-dasharray:none;stroke-dashoffset:0;stroke-opacity:1;color-rendering:auto;image-rendering:auto;shape-rendering:auto;text-rendering:auto;enable-background:accumulate;stop-color:#000000;stop-opacity:1"/></g></svg>