<?xml version="1.0" encoding="utf-8"?>
<!-- Generator: Adobe Illustrator 28.1.0, SVG Export Plug-In . SVG Version: 6.00 Build 0)  -->
<svg version="1.1" id="圖層_1" xmlns="http://www.w3.org/2000/svg" xmlns:xlink="http://www.w3.org/1999/xlink" x="0px" y="0px"
	 viewBox="0 0 150 150" style="enable-background:new 0 0 150 150;" xml:space="preserve">
<style type="text/css">
	.st0{fill:none;stroke:#005087;stroke-width:5;stroke-miterlimit:10;}
	.st1{fill:#64DCF0;stroke:#005087;stroke-width:5;stroke-miterlimit:10;}
	.st2{fill:#005087;}
	.st3{font-family:'MabryPro-Black';}
	.st4{font-size:26.3744px;}
</style>
<rect x="14.33" y="29.61" class="st0" width="115.98" height="75.62"/>
<rect x="59.8" y="105.22" class="st0" width="25.04" height="18.29"/>
<rect x="37.72" y="124.17" class="st0" width="69.19" height="8.9"/>
<g id="Layer_1">
	<g>
		<path class="st1" d="M85.44,88.44l-2.05-2.79c-4.14-5.65-2.92-13.61,2.73-17.75c5.65-4.14,13.61-2.92,17.75,2.73l2.05,2.79"/>
		<path class="st1" d="M124.83,70.81c-2.51,1.48-3.14,4.76-1.46,7.05c-1.58-2.16-4.62-2.62-6.78-1.04
			c-2.16,1.58-2.62,4.62-1.04,6.78c-1.58-2.16-4.62-2.62-6.78-1.04c-2.16,1.58-2.62,4.62-1.04,6.78l-9.01-12.28
			c-1.5-2.04-4.34-2.83-6.52-1.54c-2.51,1.48-3.14,4.76-1.46,7.05l12.04,16.41l3.44,4.69l0.53,0.73l-10.44-1.6
			c-2.65-0.41-5.12,1.41-5.53,4.05l0,0c-0.41,2.65,1.41,5.12,4.05,5.53l20.02,3.08l0.53,0.73l3.44,4.69l26.58-19.5l-2.49-3.39
			c-0.61-0.83-0.86-1.87-0.71-2.88l0.76-4.96c0.16-1.02-0.1-2.05-0.71-2.88l-1.92-2.61l-6.31-8.6l-2.7-3.69
			C129.85,70.3,127.01,69.52,124.83,70.81z"/>
	</g>
</g>
<text transform="matrix(0.9915 0 0 1 24.0566 61.8164)" class="st2 st3 st4">AUO</text>
</svg>
