<svg width="48" height="48" viewBox="0 0 48 48" fill="none" xmlns="http://www.w3.org/2000/svg">
<path fill-rule="evenodd" clip-rule="evenodd" d="M9.75 20.4C9.41863 20.4 9.15 20.6686 9.15 21C9.15 21.3314 9.41863 21.6 9.75 21.6C10.0814 21.6 10.35 21.3314 10.35 21C10.35 20.6686 10.0814 20.4 9.75 20.4ZM6.75 21C6.75 19.3431 8.09315 18 9.75 18C11.4069 18 12.75 19.3431 12.75 21C12.75 22.6569 11.4069 24 9.75 24C8.09315 24 6.75 22.6569 6.75 21Z" fill="#005087"/>
<path fill-rule="evenodd" clip-rule="evenodd" d="M10.125 25.7499C9.56398 25.7499 9.13151 25.887 8.78536 26.085C8.20268 26.4183 7.72851 27.1833 7.39558 28.0985C7.24033 28.5253 7.13682 28.9263 7.07241 29.2213C7.04045 29.3677 7.01873 29.4852 7.0054 29.5632C6.99875 29.6021 6.99422 29.631 6.99157 29.6485L6.989 29.666C6.89739 30.3499 6.26883 30.8301 5.58476 30.7389C4.90049 30.6475 4.41981 30.0188 4.51113 29.3345L5.75011 29.4999C4.51113 29.3345 4.51108 29.3349 4.51113 29.3345L4.51156 29.3313L4.51217 29.3269L4.51393 29.3143L4.51973 29.2748C4.52464 29.2423 4.53171 29.1976 4.54122 29.142C4.5602 29.0309 4.58903 28.8758 4.63 28.6881C4.71147 28.315 4.84336 27.8017 5.04627 27.2439C5.42965 26.19 6.16279 24.7051 7.54411 23.9149C8.26654 23.5017 9.12664 23.25 10.125 23.25C12.6431 23.25 14.0681 25.0117 14.7929 26.4317C15.1638 27.1582 15.3965 27.8719 15.5365 28.3958C15.6072 28.6602 15.656 28.8826 15.6876 29.0423C15.7034 29.1224 15.7151 29.1871 15.723 29.2341C15.727 29.2575 15.7301 29.2766 15.7324 29.2909L15.7352 29.3089L15.7361 29.3151L15.7365 29.3175C15.7365 29.318 15.7368 29.3195 14.5375 29.4944L15.7368 29.3195C15.8364 30.0026 15.3634 30.6371 14.6802 30.7368C13.9982 30.8362 13.3645 30.3648 13.2634 29.6834L13.2629 29.6801L13.2585 29.6534C13.2541 29.6271 13.2465 29.5844 13.2352 29.5277C13.2127 29.414 13.176 29.2458 13.1214 29.0415C13.0109 28.6279 12.8334 28.0916 12.5663 27.5682C12.015 26.4882 11.2526 25.7499 10.125 25.7499ZM13.2632 29.6819C13.2632 29.6817 13.2633 29.6821 13.2632 29.6819ZM13.2632 29.6819C13.2632 29.6815 13.263 29.6805 13.2629 29.6801L14.4999 29.4999C13.263 29.6802 13.2632 29.6815 13.2632 29.6819Z" fill="#005087"/>
<path fill-rule="evenodd" clip-rule="evenodd" d="M33 8.4C32.6686 8.4 32.4 8.66863 32.4 9C32.4 9.33137 32.6686 9.6 33 9.6C33.3314 9.6 33.6 9.33137 33.6 9C33.6 8.66863 33.3314 8.4 33 8.4ZM30 9C30 7.34315 31.3431 6 33 6C34.6569 6 36 7.34315 36 9C36 10.6569 34.6569 12 33 12C31.3431 12 30 10.6569 30 9Z" fill="#005087"/>
<path fill-rule="evenodd" clip-rule="evenodd" d="M33.375 13.7499C32.814 13.7499 32.3815 13.887 32.0354 14.085C31.4527 14.4183 30.9785 15.1833 30.6456 16.0985C30.4903 16.5253 30.3868 16.9263 30.3224 17.2213C30.2905 17.3677 30.2687 17.4852 30.2554 17.5632C30.2487 17.6021 30.2442 17.631 30.2416 17.6485L30.239 17.666C30.1474 18.3499 29.5188 18.8301 28.8348 18.7389C28.1505 18.6475 27.6698 18.0188 27.7611 17.3345L29.0001 17.4999C27.7611 17.3345 27.7611 17.3349 27.7611 17.3345L27.7616 17.3313L27.7622 17.3269L27.7639 17.3143L27.7697 17.2748C27.7746 17.2423 27.7817 17.1976 27.7912 17.142C27.8102 17.0309 27.839 16.8758 27.88 16.6881C27.9615 16.315 28.0934 15.8017 28.2963 15.2439C28.6796 14.19 29.4128 12.7051 30.7941 11.9149C31.5165 11.5017 32.3766 11.25 33.375 11.25C35.8931 11.25 37.3181 13.0117 38.0429 14.4317C38.4138 15.1582 38.6465 15.8719 38.7865 16.3958C38.8572 16.6602 38.906 16.8826 38.9376 17.0423C38.9534 17.1224 38.9651 17.1871 38.973 17.2341C38.977 17.2575 38.9801 17.2766 38.9824 17.2909L38.9852 17.3089L38.9861 17.3151L38.9865 17.3175C38.9865 17.318 38.9868 17.3195 37.7875 17.4944L38.9868 17.3195C39.0864 18.0026 38.6134 18.6371 37.9302 18.7368C37.2482 18.8362 36.6145 18.3648 36.5134 17.6834L36.5129 17.6801L36.5085 17.6534C36.5041 17.6271 36.4965 17.5844 36.4852 17.5277C36.4627 17.414 36.426 17.2458 36.3714 17.0415C36.2609 16.6279 36.0834 16.0916 35.8163 15.5682C35.265 14.4882 34.5026 13.7499 33.375 13.7499ZM36.5132 17.6819C36.5132 17.6817 36.5133 17.6821 36.5132 17.6819ZM36.5132 17.6819C36.5132 17.6815 36.513 17.6805 36.5129 17.6801L37.7499 17.4999C36.513 17.6802 36.5132 17.6815 36.5132 17.6819Z" fill="#005087"/>
<path fill-rule="evenodd" clip-rule="evenodd" d="M33 20.4C32.6686 20.4 32.4 20.6686 32.4 21C32.4 21.3314 32.6686 21.6 33 21.6C33.3314 21.6 33.6 21.3314 33.6 21C33.6 20.6686 33.3314 20.4 33 20.4ZM30 21C30 19.3431 31.3431 18 33 18C34.6569 18 36 19.3431 36 21C36 22.6569 34.6569 24 33 24C31.3431 24 30 22.6569 30 21Z" fill="#005087"/>
<path fill-rule="evenodd" clip-rule="evenodd" d="M33.375 25.7499C32.814 25.7499 32.3815 25.887 32.0354 26.085C31.4527 26.4183 30.9785 27.1833 30.6456 28.0985C30.4903 28.5253 30.3868 28.9263 30.3224 29.2213C30.2905 29.3677 30.2687 29.4852 30.2554 29.5632C30.2487 29.6021 30.2442 29.631 30.2416 29.6485L30.239 29.666C30.1474 30.3499 29.5188 30.8301 28.8348 30.7389C28.1505 30.6475 27.6698 30.0188 27.7611 29.3345L29.0001 29.4999C27.7611 29.3345 27.7611 29.3349 27.7611 29.3345L27.7616 29.3313L27.7622 29.3269L27.7639 29.3143L27.7697 29.2748C27.7746 29.2423 27.7817 29.1976 27.7912 29.142C27.8102 29.0309 27.839 28.8758 27.88 28.6881C27.9615 28.315 28.0934 27.8017 28.2963 27.2439C28.6796 26.19 29.4128 24.7051 30.7941 23.9149C31.5165 23.5017 32.3766 23.25 33.375 23.25C35.8931 23.25 37.3181 25.0117 38.0429 26.4317C38.4138 27.1582 38.6465 27.8719 38.7865 28.3958C38.8572 28.6602 38.906 28.8826 38.9376 29.0423C38.9534 29.1224 38.9651 29.1871 38.973 29.2341C38.977 29.2575 38.9801 29.2766 38.9824 29.2909L38.9852 29.3089L38.9861 29.3151L38.9865 29.3175C38.9865 29.318 38.9868 29.3195 37.7875 29.4944L38.9868 29.3195C39.0864 30.0026 38.6134 30.6371 37.9302 30.7368C37.2482 30.8362 36.6145 30.3648 36.5134 29.6834L36.5129 29.6801L36.5085 29.6534C36.5041 29.6271 36.4965 29.5844 36.4852 29.5277C36.4627 29.414 36.426 29.2458 36.3714 29.0415C36.2609 28.6279 36.0834 28.0916 35.8163 27.5682C35.265 26.4882 34.5026 25.7499 33.375 25.7499ZM36.5132 29.6819C36.5132 29.6817 36.5133 29.6821 36.5132 29.6819ZM36.5132 29.6819C36.5132 29.6815 36.513 29.6805 36.5129 29.6801L37.7499 29.4999C36.513 29.6802 36.5132 29.6815 36.5132 29.6819Z" fill="#005087"/>
<path fill-rule="evenodd" clip-rule="evenodd" d="M33 31.65C32.6686 31.65 32.4 31.9186 32.4 32.25C32.4 32.5814 32.6686 32.85 33 32.85C33.3314 32.85 33.6 32.5814 33.6 32.25C33.6 31.9186 33.3314 31.65 33 31.65ZM30 32.25C30 30.5931 31.3431 29.25 33 29.25C34.6569 29.25 36 30.5931 36 32.25C36 33.9069 34.6569 35.25 33 35.25C31.3431 35.25 30 33.9069 30 32.25Z" fill="#005087"/>
<path fill-rule="evenodd" clip-rule="evenodd" d="M33.375 36.9999C32.814 36.9999 32.3815 37.137 32.0354 37.335C31.4527 37.6683 30.9785 38.4333 30.6456 39.3485C30.4903 39.7753 30.3868 40.1763 30.3224 40.4713C30.2905 40.6177 30.2687 40.7352 30.2554 40.8132C30.2487 40.8521 30.2442 40.881 30.2416 40.8985L30.239 40.916C30.1474 41.5999 29.5188 42.0801 28.8348 41.9889C28.1505 41.8975 27.6698 41.2688 27.7611 40.5845L29.0001 40.7499C27.7611 40.5845 27.7611 40.5849 27.7611 40.5845L27.7616 40.5813L27.7622 40.5769L27.7639 40.5643L27.7697 40.5248C27.7746 40.4923 27.7817 40.4476 27.7912 40.392C27.8102 40.2809 27.839 40.1258 27.88 39.9381C27.9615 39.565 28.0934 39.0517 28.2963 38.4939C28.6796 37.44 29.4128 35.9551 30.7941 35.1649C31.5165 34.7517 32.3766 34.5 33.375 34.5C35.8931 34.5 37.3181 36.2617 38.0429 37.6817C38.4138 38.4082 38.6465 39.1219 38.7865 39.6458C38.8572 39.9102 38.906 40.1326 38.9376 40.2923C38.9534 40.3724 38.9651 40.4371 38.973 40.4841C38.977 40.5075 38.9801 40.5266 38.9824 40.5409L38.9852 40.5589L38.9861 40.5651L38.9865 40.5675C38.9865 40.568 38.9868 40.5695 37.7875 40.7444L38.9868 40.5695C39.0864 41.2526 38.6134 41.8871 37.9302 41.9868C37.2482 42.0862 36.6145 41.6148 36.5134 40.9334L36.5129 40.9301L36.5085 40.9034C36.5041 40.8771 36.4965 40.8344 36.4852 40.7777C36.4627 40.664 36.426 40.4958 36.3714 40.2915C36.2609 39.8779 36.0834 39.3416 35.8163 38.8182C35.265 37.7382 34.5026 36.9999 33.375 36.9999ZM36.5132 40.9319C36.5132 40.9317 36.5133 40.9321 36.5132 40.9319ZM36.5132 40.9319C36.5132 40.9315 36.513 40.9305 36.5129 40.9301L37.7499 40.7499C36.513 40.9302 36.5132 40.9315 36.5132 40.9319Z" fill="#005087"/>
<path fill-rule="evenodd" clip-rule="evenodd" d="M18.825 12.525C18.825 11.8208 19.3958 11.25 20.1 11.25H26.475C27.1792 11.25 27.75 11.8208 27.75 12.525C27.75 13.2292 27.1792 13.8 26.475 13.8H21.375V22.725H26.475C27.1792 22.725 27.75 23.2958 27.75 24C27.75 24.7042 27.1792 25.275 26.475 25.275H21.375V34.2H26.475C27.1792 34.2 27.75 34.7708 27.75 35.475C27.75 36.1792 27.1792 36.75 26.475 36.75H20.1C19.3958 36.75 18.825 36.1792 18.825 35.475V25.275H16.275C15.5708 25.275 15 24.7042 15 24C15 23.2958 15.5708 22.725 16.275 22.725H18.825V12.525Z" fill="#005087"/>
</svg>
